<?xml version="1.0" encoding="utf-8"?>
<!-- Generator: Adobe Illustrator 24.2.1, SVG Export Plug-In . SVG Version: 6.00 Build 0)  -->
<svg version="1.1" id="Layer_1" xmlns="http://www.w3.org/2000/svg" xmlns:xlink="http://www.w3.org/1999/xlink" x="0px" y="0px"
	 viewBox="0 0 202.82 157.08" style="enable-background:new 0 0 202.82 157.08;" xml:space="preserve">
<style type="text/css">
	.st0{fill:#92C728;}
	.st1{fill:#007934;}
	.st2{fill:#FFFFFF;}
</style>
<g>
	<path class="st0" d="M202.82,78.54c0,43.36-45.42,78.54-101.41,78.54C45.4,157.08,0,121.91,0,78.54C0,35.16,45.4,0,101.41,0
		C157.4,0,202.82,35.16,202.82,78.54"/>
	<path class="st1" d="M66.67,122.39c-8.19,0-15.71-1.92-22.17-5.3c-9.15-4.67-16.18-12.44-19.93-21.95
		c-0.01-0.02-0.02-0.04-0.02-0.06c-0.08-0.21-0.16-0.42-0.24-0.63c-0.07-0.19-0.14-0.38-0.21-0.57c-0.01-0.04-0.03-0.08-0.04-0.12
		c-1.62-4.54-2.5-9.43-2.5-14.55v-0.17v-0.14v-0.17c0-22.4,16.47-40.84,39.28-42.94c2-0.24,4.05-0.37,6.14-0.37
		c11.94,0,22.44,4.07,30.31,10.8c-0.49,0.61-0.97,1.23-1.44,1.87c-3.71,5.07-6.43,10.67-8.1,16.59c-4.49-5.47-11.53-9-19.45-9
		c-13.57,0-24.57,10.35-24.57,23.12c0,12.77,11,23.12,24.57,23.12c7.91,0,14.94-3.52,19.43-8.98c1.67,5.94,4.4,11.57,8.12,16.66
		c0.45,0.61,0.91,1.21,1.39,1.8C89.32,118.24,78.71,122.39,66.67,122.39z M138.02,122.06c-10.61,0-20.32-3.85-27.85-10.21
		c-2.49-2.1-4.73-4.48-6.69-7.09c-0.12-0.16-0.24-0.32-0.36-0.48c-5.23-7.14-8.32-15.94-8.32-25.45c0-9.51,3.09-18.3,8.32-25.45
		c0.14-0.19,0.28-0.37,0.42-0.55c1.95-2.57,4.17-4.92,6.63-7.01c7.53-6.36,17.24-10.21,27.85-10.21c23.83,0,43.22,19.38,43.22,43.21
		C181.24,102.68,161.86,122.06,138.02,122.06z"/>
	<path class="st2" d="M164.1,78.91c0-5.51-7.71-6.93-18.3-7.29c-0.34-10.57-1.78-18.29-7.27-18.29c-5.5,0-6.94,7.72-7.27,18.29
		c-10.58,0.36-18.31,1.78-18.31,7.29c0,5.5,7.73,6.94,18.31,7.27c0.33,10.58,1.77,18.3,7.27,18.3c5.49,0,6.94-7.73,7.27-18.3
		C156.38,85.85,164.1,84.41,164.1,78.91"/>
</g>
</svg>
