<?xml version="1.0" encoding="utf-8"?>
<!-- Generator: Adobe Illustrator 24.2.1, SVG Export Plug-In . SVG Version: 6.00 Build 0)  -->
<svg version="1.1" id="Layer_1" xmlns="http://www.w3.org/2000/svg" xmlns:xlink="http://www.w3.org/1999/xlink" x="0px" y="0px"
	 viewBox="0 0 500 350" style="enable-background:new 0 0 500 350;" xml:space="preserve">
<style type="text/css">
	.st0{fill:#4A205B;}
	.st1{fill:#FFFFFF;}
	.st2{fill:#9E6BAE;}
</style>
<rect class="st0" width="500" height="350"/>
<path class="st1" d="M365.43,138.84h-1.25v-6.43h-2.45v-1.11h6.16v1.11h-2.46V138.84z M369.91,138.84h-1.16v-7.54h1.86l1.9,6.03
	l1.84-6.03h1.82v7.54h-1.16v-6.33l-1.94,6.33h-1.14l-2.03-6.43V138.84z"/>
<path class="st1" d="M160.16,227.61v2.27c-1.22-0.74-2.34-1.12-3.38-1.12c-0.77,0-1.15,0.27-1.15,0.78c0,0.14,0.08,0.27,0.24,0.41
	c0.16,0.13,0.78,0.4,1.85,0.84c1.08,0.43,1.83,0.91,2.28,1.47c0.44,0.56,0.66,1.17,0.66,1.84c0,1.05-0.36,1.86-1.07,2.43
	c-0.72,0.59-1.73,0.87-3.06,0.87c-1.36,0-2.57-0.26-3.62-0.75v-2.24c1.29,0.57,2.39,0.86,3.27,0.86c1.03,0,1.54-0.25,1.54-0.75
	c0-0.18-0.1-0.37-0.28-0.55c-0.19-0.17-0.83-0.47-1.91-0.89c-1.09-0.43-1.83-0.89-2.23-1.4c-0.4-0.51-0.6-1.08-0.6-1.69
	c0-0.93,0.38-1.68,1.15-2.26c0.77-0.58,1.78-0.87,3.03-0.87C158.09,226.86,159.19,227.11,160.16,227.61"/>
<path class="st1" d="M169.77,227.08v2.17h-3.69v4.17c0,0.51,0.14,0.9,0.42,1.19c0.28,0.28,0.65,0.44,1.14,0.44
	c0.67,0,1.38-0.2,2.14-0.6v2.31c-1.01,0.43-1.99,0.64-2.95,0.64c-1.24,0-2.21-0.33-2.9-0.97c-0.69-0.64-1.03-1.58-1.03-2.83v-4.35
	h-1.45v-0.62l4.24-4.75h0.4v3.2H169.77z"/>
<path class="st1" d="M174.82,227.08v2.89h0.05c0.91-2.08,1.99-3.11,3.22-3.11c0.58,0,1.29,0.3,2.12,0.92l-0.88,2.82
	c-0.79-0.49-1.42-0.75-1.89-0.75c-0.74,0-1.36,0.45-1.86,1.36c-0.5,0.92-0.76,1.46-0.76,1.6v4.38h-3.19v-10.12H174.82z"/>
<path class="st1" d="M186.43,226.86c1.59,0,2.94,0.47,4.05,1.4c1.1,0.92,1.66,2.23,1.66,3.9c0,1.66-0.56,2.95-1.68,3.87
	c-1.13,0.92-2.46,1.38-4.02,1.38c-1.67,0-3.06-0.49-4.13-1.47c-1.06-0.98-1.61-2.25-1.61-3.81c0-1.6,0.55-2.87,1.64-3.83
	C183.43,227.34,184.79,226.86,186.43,226.86 M186.43,235.51c1.52,0,2.3-1.14,2.3-3.44c0-2.21-0.77-3.32-2.3-3.32
	c-0.73,0-1.3,0.3-1.71,0.88c-0.41,0.59-0.62,1.41-0.62,2.49C184.11,234.38,184.88,235.51,186.43,235.51"/>
<path class="st1" d="M197.29,227.08v1.43c0.94-1.11,2.04-1.65,3.3-1.65c1.05,0,1.93,0.34,2.64,1c0.7,0.69,1.05,1.64,1.05,2.89v6.45
	h-3.18v-6.17c0-1.35-0.53-2.03-1.58-2.03c-0.75,0-1.49,0.56-2.22,1.67v6.54h-3.19v-10.12H197.29z"/>
<path class="st1" d="M216.83,227.08v2.13h-1.46c0.34,0.58,0.51,1.14,0.51,1.69c0,0.79-0.29,1.5-0.88,2.18
	c-0.6,0.66-1.46,1.06-2.61,1.19c-1.15,0.13-1.8,0.25-1.95,0.35c-0.15,0.12-0.23,0.25-0.23,0.44c0,0.18,0.1,0.32,0.3,0.43
	c0.2,0.11,0.98,0.22,2.36,0.34c1.38,0.12,2.34,0.49,2.88,1.08c0.54,0.61,0.81,1.26,0.81,1.95c0,1.11-0.45,1.95-1.38,2.53
	c-0.92,0.59-2.25,0.87-3.99,0.87c-1.77,0-3.12-0.26-4.03-0.8c-0.92-0.54-1.37-1.25-1.37-2.14c0-1.22,0.91-2.09,2.7-2.56
	c-0.82-0.25-1.22-0.69-1.22-1.33c0-0.74,0.61-1.26,1.84-1.54c-0.82-0.14-1.5-0.5-2.03-1.06c-0.54-0.58-0.81-1.26-0.81-2.06
	c0-0.96,0.39-1.83,1.16-2.58c0.77-0.74,1.89-1.1,3.37-1.1H216.83z M211.36,240.37c0.68,0,1.23-0.13,1.66-0.37
	c0.42-0.26,0.63-0.56,0.63-0.9c0-0.75-0.83-1.12-2.48-1.12c-0.76,0-1.35,0.12-1.77,0.33c-0.42,0.22-0.64,0.51-0.64,0.88
	C208.75,239.97,209.62,240.37,211.36,240.37 M211.09,228.96c-0.52,0-0.95,0.17-1.31,0.53c-0.35,0.36-0.53,0.79-0.53,1.31
	c0,0.49,0.18,0.92,0.55,1.28c0.36,0.37,0.8,0.55,1.29,0.55c0.51,0,0.93-0.19,1.28-0.57c0.36-0.39,0.54-0.84,0.54-1.38
	c0-0.47-0.17-0.89-0.52-1.22C212.05,229.14,211.61,228.96,211.09,228.96"/>
<path class="st1" d="M228.06,234.06v2.01c-1.21,0.89-2.73,1.33-4.52,1.33c-1.77,0-3.2-0.47-4.27-1.43c-1.07-0.96-1.6-2.22-1.6-3.8
	c0-1.55,0.5-2.82,1.5-3.81c1-1.01,2.28-1.5,3.83-1.5c1.56,0,2.84,0.53,3.84,1.56c0.98,1.06,1.45,2.46,1.39,4.22h-7.27
	c0.06,0.92,0.38,1.63,0.97,2.12c0.59,0.49,1.37,0.74,2.36,0.74C225.49,235.51,226.74,235.02,228.06,234.06 M221.03,230.97h4.39
	c-0.16-1.48-0.9-2.22-2.19-2.22C221.92,228.75,221.18,229.49,221.03,230.97"/>
<path class="st1" d="M233.51,227.08v2.89h0.04c0.92-2.08,2-3.11,3.23-3.11c0.59,0,1.3,0.3,2.12,0.92l-0.88,2.82
	c-0.79-0.49-1.42-0.75-1.89-0.75c-0.74,0-1.36,0.45-1.88,1.36c-0.49,0.92-0.74,1.46-0.74,1.6v4.38h-3.19v-10.12H233.51z"/>
<path class="st1" d="M252.81,227.08v2.17h-3.7v4.17c0,0.51,0.15,0.9,0.42,1.19c0.27,0.28,0.66,0.44,1.14,0.44
	c0.66,0,1.37-0.2,2.13-0.6v2.31c-1.01,0.43-2,0.64-2.95,0.64c-1.24,0-2.21-0.33-2.89-0.97c-0.69-0.64-1.03-1.58-1.03-2.83v-4.35
	h-1.45v-0.62l4.24-4.75h0.39v3.2H252.81z"/>
<path class="st1" d="M259.54,226.86c1.59,0,2.93,0.47,4.04,1.4c1.09,0.92,1.65,2.23,1.65,3.9c0,1.66-0.56,2.95-1.69,3.87
	c-1.12,0.92-2.45,1.38-4.01,1.38c-1.68,0-3.06-0.49-4.13-1.47c-1.07-0.98-1.61-2.25-1.61-3.81c0-1.6,0.55-2.87,1.64-3.83
	C256.54,227.34,257.91,226.86,259.54,226.86 M259.54,235.51c1.52,0,2.29-1.14,2.29-3.44c0-2.21-0.77-3.32-2.29-3.32
	c-0.73,0-1.3,0.3-1.71,0.88c-0.42,0.59-0.62,1.41-0.62,2.49C257.22,234.38,257.99,235.51,259.54,235.51"/>
<path class="st1" d="M276.8,227.08v2.13h-1.45c0.33,0.58,0.5,1.14,0.5,1.69c0,0.79-0.3,1.5-0.89,2.18c-0.58,0.66-1.45,1.06-2.6,1.19
	c-1.14,0.13-1.79,0.25-1.95,0.35c-0.15,0.12-0.23,0.25-0.23,0.44c0,0.18,0.1,0.32,0.3,0.43c0.2,0.11,0.99,0.22,2.37,0.34
	c1.38,0.12,2.33,0.49,2.87,1.08c0.55,0.61,0.82,1.26,0.82,1.95c0,1.11-0.46,1.95-1.38,2.53c-0.92,0.59-2.25,0.87-3.99,0.87
	c-1.77,0-3.12-0.26-4.04-0.8c-0.92-0.54-1.37-1.25-1.37-2.14c0-1.22,0.9-2.09,2.7-2.56c-0.82-0.25-1.23-0.69-1.23-1.33
	c0-0.74,0.61-1.26,1.84-1.54c-0.82-0.14-1.5-0.5-2.04-1.06c-0.54-0.58-0.81-1.26-0.81-2.06c0-0.96,0.38-1.83,1.16-2.58
	c0.78-0.74,1.89-1.1,3.37-1.1H276.8z M271.33,240.37c0.69,0,1.23-0.13,1.65-0.37c0.43-0.26,0.64-0.56,0.64-0.9
	c0-0.75-0.82-1.12-2.48-1.12c-0.76,0-1.35,0.12-1.77,0.33c-0.43,0.22-0.65,0.51-0.65,0.88
	C268.72,239.97,269.59,240.37,271.33,240.37 M271.06,228.96c-0.52,0-0.95,0.17-1.31,0.53c-0.35,0.36-0.53,0.79-0.53,1.31
	c0,0.49,0.18,0.92,0.55,1.28c0.36,0.37,0.79,0.55,1.29,0.55c0.5,0,0.93-0.19,1.29-0.57c0.36-0.39,0.53-0.84,0.53-1.38
	c0-0.47-0.17-0.89-0.52-1.22C272.02,229.14,271.59,228.96,271.06,228.96"/>
<path class="st1" d="M288.02,234.06v2.01c-1.22,0.89-2.72,1.33-4.51,1.33c-1.78,0-3.2-0.47-4.27-1.43c-1.07-0.96-1.6-2.22-1.6-3.8
	c0-1.55,0.5-2.82,1.5-3.81c1-1.01,2.28-1.5,3.83-1.5c1.56,0,2.84,0.53,3.83,1.56c1,1.06,1.47,2.46,1.4,4.22h-7.27
	c0.07,0.92,0.39,1.63,0.98,2.12c0.59,0.49,1.37,0.74,2.36,0.74C285.47,235.51,286.72,235.02,288.02,234.06 M281,230.97h4.39
	c-0.17-1.48-0.9-2.22-2.19-2.22C281.89,228.75,281.15,229.49,281,230.97"/>
<path class="st1" d="M297.33,227.08v2.17h-3.69v4.17c0,0.51,0.14,0.9,0.42,1.19c0.28,0.28,0.65,0.44,1.14,0.44
	c0.66,0,1.37-0.2,2.13-0.6v2.31c-1.01,0.43-2,0.64-2.95,0.64c-1.25,0-2.21-0.33-2.9-0.97c-0.69-0.64-1.04-1.58-1.04-2.83v-4.35H289
	v-0.62l4.24-4.75h0.39v3.2H297.33z"/>
<path class="st1" d="M302.35,222.22v6.34h0.04c0.89-1.14,1.96-1.7,3.21-1.7c1.08,0,1.97,0.34,2.66,1.03
	c0.7,0.68,1.05,1.63,1.05,2.84v6.47h-3.2v-5.79c0-1.47-0.55-2.22-1.63-2.22c-0.72,0-1.43,0.53-2.13,1.55v6.47h-3.19v-14.98H302.35z"
	/>
<path class="st1" d="M321.62,234.06v2.01c-1.22,0.89-2.71,1.33-4.51,1.33c-1.79,0-3.2-0.47-4.28-1.43c-1.07-0.96-1.6-2.22-1.6-3.8
	c0-1.55,0.5-2.82,1.51-3.81c1-1.01,2.28-1.5,3.83-1.5c1.56,0,2.83,0.53,3.84,1.56c1,1.06,1.46,2.46,1.4,4.22h-7.28
	c0.07,0.92,0.4,1.63,0.98,2.12c0.58,0.49,1.38,0.74,2.36,0.74C319.06,235.51,320.31,235.02,321.62,234.06 M314.59,230.97h4.4
	c-0.17-1.48-0.91-2.22-2.2-2.22C315.48,228.75,314.74,229.49,314.59,230.97"/>
<path class="st1" d="M327.07,227.08v2.89h0.05c0.93-2.08,2-3.11,3.23-3.11c0.6,0,1.29,0.3,2.12,0.92l-0.89,2.82
	c-0.79-0.49-1.41-0.75-1.89-0.75c-0.73,0-1.35,0.45-1.86,1.36c-0.5,0.92-0.76,1.46-0.76,1.6v4.38h-3.18v-10.12H327.07z"/>
<path class="st2" d="M252.35,157.52c0,27.48-28.78,49.77-64.26,49.77c-35.5,0-64.27-22.29-64.27-49.77
	c0-27.49,28.77-49.77,64.27-49.77C223.57,107.75,252.35,130.03,252.35,157.52"/>
<path class="st1" d="M272.35,185.13c-15.77,0-27.45-12.04-27.45-27.12v-0.2c0-15.07,11.78-27.31,27.64-27.31
	c15.77,0,27.46,12.05,27.46,27.12v0.19C300,172.9,288.22,185.13,272.35,185.13 M285.75,157.82c0-7.73-5.41-14.49-13.4-14.49
	c-8.26,0-13.21,6.57-13.21,14.3v0.19c0,7.74,5.42,14.5,13.39,14.5c8.27,0,13.21-6.56,13.21-14.29V157.82z"/>
<path class="st1" d="M333.87,130.5c-4.94,0-9.49,1.18-13.4,3.28v-3.2h-14.49v71.34h14.49v-19.95c3.86,2.02,8.34,3.17,13.21,3.17
	c15.86,0,27.65-12.24,27.65-27.32v-0.19C361.34,142.55,349.65,130.5,333.87,130.5z M347.08,158.02c0,7.73-4.94,14.29-13.21,14.29
	c-7.98,0-13.39-6.75-13.39-14.5v-0.19c0-7.73,4.94-14.3,13.21-14.3c7.98,0,13.39,6.76,13.39,14.49V158.02z"/>
<path class="st0" d="M166.07,185.31c-5.19,0-9.96-1.21-14.05-3.36c-5.8-2.96-10.25-7.88-12.63-13.91c0-0.01-0.01-0.03-0.01-0.04
	c-0.05-0.13-0.1-0.27-0.15-0.4c-0.05-0.12-0.09-0.24-0.14-0.36c-0.01-0.03-0.02-0.05-0.03-0.08c-1.03-2.88-1.58-5.98-1.58-9.22
	v-0.11v-0.09v-0.11c0-14.2,10.44-25.88,24.9-27.21c1.27-0.15,2.57-0.23,3.89-0.23c7.56,0,14.22,2.58,19.21,6.84
	c-0.31,0.39-0.62,0.78-0.91,1.18c-2.35,3.22-4.08,6.76-5.13,10.51c-2.85-3.47-7.31-5.71-12.33-5.71c-8.6,0-15.57,6.56-15.57,14.65
	c0,8.09,6.97,14.65,15.57,14.65c5.01,0,9.47-2.23,12.32-5.69c1.06,3.77,2.79,7.33,5.15,10.56c0.28,0.39,0.58,0.77,0.88,1.14
	C180.42,182.68,173.7,185.31,166.07,185.31z M211.29,185.1c-6.72,0-12.88-2.44-17.65-6.47c-1.58-1.33-3-2.84-4.24-4.49
	c-0.08-0.1-0.15-0.2-0.23-0.3c-3.31-4.53-5.27-10.1-5.27-16.13c0-6.02,1.96-11.6,5.27-16.13c0.09-0.12,0.18-0.23,0.26-0.35
	c1.23-1.63,2.64-3.12,4.2-4.44c4.77-4.03,10.93-6.47,17.65-6.47c15.1,0,27.39,12.28,27.39,27.38
	C238.68,172.81,226.39,185.1,211.29,185.1z"/>
<path class="st1" d="M227.81,157.76c0-3.49-4.89-4.39-11.6-4.62c-0.21-6.7-1.13-11.59-4.61-11.59c-3.49,0-4.4,4.89-4.6,11.59
	c-6.7,0.23-11.6,1.13-11.6,4.62c0,3.48,4.9,4.4,11.6,4.61c0.21,6.7,1.12,11.6,4.6,11.6c3.48,0,4.4-4.9,4.61-11.6
	C222.92,162.15,227.81,161.24,227.81,157.76"/>
</svg>
