<?xml version="1.0" encoding="utf-8"?>
<!-- Generator: Adobe Illustrator 24.2.1, SVG Export Plug-In . SVG Version: 6.00 Build 0)  -->
<svg version="1.1" id="Layer_1" xmlns="http://www.w3.org/2000/svg" xmlns:xlink="http://www.w3.org/1999/xlink" x="0px" y="0px"
	 viewBox="0 0 200 96.2" style="enable-background:new 0 0 200 96.2;" xml:space="preserve">
<style type="text/css">
	.st0{fill:#FFFFFF;}
</style>
<g>
	<g>
		<path class="st0" d="M17.88,18.93H7.69L5.7,24.1H0L9.58,0h6.58l9.62,24.1h-5.97L17.88,18.93z M9.38,14.48h6.85l-3.34-8.91h-0.1
			L9.38,14.48z"/>
		<path class="st0" d="M38.29,15.96v8.13h-5.7V0h10.83c6.04,0,9.48,2.73,9.48,8s-3.44,7.96-9.42,7.96H38.29z M42.81,11.47
			c3.04,0,4.35-1.21,4.35-3.47c0-2.33-1.32-3.51-4.35-3.51h-4.52v6.99H42.81z"/>
		<path class="st0" d="M66.66,11.91c-0.61-0.1-1.18-0.14-1.82-0.14c-2.56,0-4.52,1.52-4.52,4.76v7.56h-5.63V6.82h5.57v3.68
			c0.88-2.56,2.73-3.95,5.17-3.95c0.47,0,0.94,0.03,1.25,0.17V11.91z"/>
		<path class="st0" d="M76.17,24.5c-5.17,0-9.15-3.38-9.15-9.04S71,6.41,76.1,6.41c5.67,0,8.47,4.08,8.47,8.78v1.52H72.46
			c0.3,2.39,1.48,3.81,3.71,3.81c1.62,0,2.7-0.74,3.14-2.06h5.2C83.76,22.2,80.63,24.5,76.17,24.5z M72.56,13.7h6.78
			c0-1.75-1.08-3.34-3.24-3.34C74.15,10.36,72.96,11.57,72.56,13.7z"/>
		<path class="st0" d="M96.88,23.83c-1.45,0.4-2.5,0.54-3.81,0.54c-3.98,0-5.87-1.55-5.87-5.23v-8.37h-2.3V6.82h2.3V2.53h5.57v4.29
			h3.75v3.95h-3.78v7.22c0,1.45,0.67,1.89,2.02,1.89c0.64,0,1.25-0.03,2.13-0.24V23.83z"/>
		<path class="st0" d="M109.26,23.83c-1.45,0.4-2.5,0.54-3.81,0.54c-3.98,0-5.87-1.55-5.87-5.23v-8.37h-2.3V6.82h2.3V2.53h5.57v4.29
			h3.75v3.95h-3.78v7.22c0,1.45,0.67,1.89,2.02,1.89c0.64,0,1.25-0.03,2.13-0.24V23.83z"/>
		<path class="st0" d="M109.62,6.82h5.67l4.18,12.08h0.07l4.01-12.08h5.54l-6.55,17.38c-1.72,4.52-4.22,6.17-8.3,6.17
			c-0.68,0-1.59-0.03-2.33-0.17v-4.12c0.47,0.07,0.68,0.07,1.01,0.07c1.79,0,2.56-0.3,3.27-2.23L109.62,6.82z"/>
		<path class="st0" d="M13.02,32.51c6.18,0,9.59,3.31,10.67,8.34h-5.81c-0.51-2.4-2.02-3.85-4.86-3.85c-3.95,0-6.14,2.94-6.14,7.93
			c0,5.03,2.19,8,6.14,8c3.11,0,5-1.72,5-3.91v-0.44h-3.75v-4.12h9.65v12.56h-4.52l-0.34-2.9c-0.84,1.99-3.81,3.31-6.51,3.31
			c-7.12,0-11.61-5.13-11.61-12.49C0.94,37.6,5.67,32.51,13.02,32.51z"/>
		<path class="st0" d="M35.42,57.42c-5.43,0-9.21-3.41-9.21-9.05c0-5.64,3.78-9.04,9.21-9.04c5.4,0,9.18,3.41,9.18,9.04
			C44.6,54,40.82,57.42,35.42,57.42z M35.42,53.36c2.33,0,3.51-1.85,3.51-4.99c0-3.14-1.18-5-3.51-5c-2.33,0-3.55,1.86-3.55,5
			C31.88,51.51,33.09,53.36,35.42,53.36z"/>
		<path class="st0" d="M54.99,57.42c-5.43,0-9.21-3.41-9.21-9.05c0-5.64,3.78-9.04,9.21-9.04c5.4,0,9.18,3.41,9.18,9.04
			C64.17,54,60.39,57.42,54.99,57.42z M54.99,53.36c2.33,0,3.51-1.85,3.51-4.99c0-3.14-1.18-5-3.51-5c-2.33,0-3.55,1.86-3.55,5
			C51.44,51.51,52.66,53.36,54.99,53.36z"/>
		<path class="st0" d="M78.19,54.44c-0.88,1.72-2.9,2.97-5.3,2.97c-4.66,0-7.56-3.78-7.56-9.05s2.9-9.04,7.56-9.04
			c2.43,0,4.39,1.25,5.23,2.97V32.17h5.64v24.84h-5.57V54.44z M78.23,48c0-2.9-1.32-4.66-3.58-4.66c-2.36,0-3.65,1.93-3.65,5.03
			c0,3.14,1.28,4.99,3.65,4.99c2.26,0,3.58-1.75,3.58-4.62V48z"/>
		<path class="st0" d="M114.9,44.93c0,7.26-4.79,12.08-12.32,12.08h-9.89v-24.1h9.89C110.11,32.91,114.9,37.71,114.9,44.93z
			 M98.4,37.4v15.09h4.18c4.12,0,6.38-2.6,6.38-7.56c0-4.92-2.26-7.53-6.38-7.53H98.4z"/>
		<path class="st0" d="M125.05,57.42c-5.17,0-9.15-3.38-9.15-9.05s3.98-9.04,9.08-9.04c5.67,0,8.47,4.08,8.47,8.77v1.52h-12.11
			c0.3,2.4,1.48,3.81,3.71,3.81c1.62,0,2.7-0.74,3.14-2.06h5.2C132.64,55.12,129.5,57.42,125.05,57.42z M121.44,46.61h6.78
			c0-1.76-1.08-3.34-3.24-3.34C123.02,43.27,121.84,44.49,121.44,46.61z"/>
		<path class="st0" d="M139.71,51.64c0.2,1.52,1.76,2.1,3.24,2.1c1.39,0,2.6-0.48,2.6-1.59c0-0.91-0.71-1.21-2.4-1.52l-3.07-0.51
			c-2.9-0.51-5.1-1.82-5.1-5c0-3.51,3.34-5.8,7.56-5.8c4.86,0,7.56,2.19,7.93,5.57h-5c-0.17-1.18-1.35-1.92-2.87-1.92
			c-1.42,0-2.4,0.61-2.4,1.55c0,0.91,0.74,1.22,2.3,1.48l3.34,0.57c3.18,0.51,4.96,2.23,4.96,5.1c0,3.58-3.44,5.74-7.76,5.74
			c-4.83,0-8.17-1.93-8.61-5.78H139.71z"/>
		<path class="st0" d="M152.97,32.44h5.84v4.89h-5.84V32.44z M153.07,39.73h5.64v17.28h-5.64V39.73z"/>
		<path class="st0" d="M173.75,53.4c-0.84,1.68-2.73,3.04-5.23,3.04c-4.73,0-7.63-3.58-7.63-8.57c0-4.96,2.9-8.54,7.63-8.54
			c2.5,0,4.46,1.35,5.29,3v-2.6h5.57v15.22c0,5.78-3.75,8.47-9.28,8.47c-5.1,0-8.3-2.16-8.91-5.67h5.57
			c0.41,1.32,1.59,1.86,3.31,1.86c2.2,0,3.68-1.11,3.68-3.81V53.4z M173.89,47.53c0-2.6-1.48-4.22-3.68-4.22
			c-2.33,0-3.64,1.72-3.64,4.56c0,2.8,1.31,4.59,3.64,4.59c2.2,0,3.68-1.62,3.68-4.29V47.53z"/>
		<path class="st0" d="M188.26,42.4c0.84-1.76,2.73-3.07,5.33-3.07c3.98,0,6.41,2.43,6.41,6.61v11.07h-5.67v-9.72
			c0-2.4-0.94-3.61-2.87-3.61c-1.75,0-3.13,1.15-3.13,4.08v9.25h-5.64V39.73h5.57V42.4z"/>
		<path class="st0" d="M12.76,85.84c2.94,0,4.35-1.65,4.79-3.98h5.67c-0.95,4.99-4.29,8.47-10.46,8.47
			c-7.19,0-11.81-5.1-11.81-12.45c0-7.33,4.62-12.45,11.81-12.45c6.18,0,9.52,3.44,10.46,8.47h-5.67c-0.44-2.33-1.85-3.98-4.79-3.98
			c-3.81,0-5.87,2.97-5.87,7.97C6.88,82.87,8.94,85.84,12.76,85.84z"/>
		<path class="st0" d="M33.23,90.33c-5.43,0-9.21-3.41-9.21-9.05c0-5.63,3.78-9.05,9.21-9.05c5.4,0,9.18,3.41,9.18,9.05
			C42.41,86.92,38.63,90.33,33.23,90.33z M33.23,86.28c2.33,0,3.51-1.85,3.51-4.99c0-3.14-1.18-4.99-3.51-4.99
			c-2.33,0-3.55,1.85-3.55,4.99C29.69,84.43,30.9,86.28,33.23,86.28z"/>
		<path class="st0" d="M66.6,72.24c3.98,0,6.21,2.47,6.21,6.62v11.07h-5.67v-9.79c0-2.36-0.91-3.54-2.67-3.54
			c-1.65,0-2.94,1.15-2.94,4.02v9.31h-5.67v-9.79c0-2.36-0.91-3.54-2.67-3.54c-1.69,0-2.97,1.15-2.97,4.02v9.31h-5.63V72.65h5.57
			v2.67c0.85-1.79,2.73-3.07,5.2-3.07c2.87,0,4.49,1.25,5.43,3.11C61.94,73.49,64.07,72.24,66.6,72.24z"/>
		<path class="st0" d="M81.53,95.93H75.9V72.65h5.57v2.6c0.85-1.72,2.87-3.01,5.3-3.01c4.66,0,7.56,3.78,7.56,9.05
			c0,5.26-2.9,9.05-7.56,9.05c-2.4,0-4.35-1.25-5.23-2.97V95.93z M81.43,81.66c0,2.87,1.32,4.62,3.58,4.62
			c2.36,0,3.64-1.85,3.64-4.99c0-3.1-1.28-5.03-3.64-5.03c-2.26,0-3.58,1.76-3.58,4.66V81.66z"/>
		<path class="st0" d="M106.8,87.4c-0.88,1.93-2.9,2.94-5.54,2.94c-3.68,0-6.01-1.99-6.01-5.1c0-3.61,2.9-4.93,6.41-5.3l4.86-0.47
			v-0.71c0-1.59-0.94-2.5-2.6-2.5c-1.55,0-2.43,0.91-2.53,2.2H96c0.37-3.88,3.37-6.21,8.13-6.21c5.17,0,7.9,2.4,7.9,7.16V85
			c0,1.89,0.07,3.31,0.3,4.92h-5.37C106.87,88.98,106.8,88.24,106.8,87.4z M106.53,83.38v-0.85l-3.1,0.37
			c-1.52,0.17-2.6,0.57-2.6,1.96c0,1.15,0.77,1.85,2.16,1.85C104.84,86.72,106.53,85.57,106.53,83.38z"/>
		<path class="st0" d="M120.69,75.31c0.85-1.75,2.73-3.07,5.33-3.07c3.98,0,6.41,2.43,6.41,6.62v11.07h-5.67v-9.72
			c0-2.39-0.94-3.61-2.87-3.61c-1.75,0-3.14,1.15-3.14,4.09v9.24h-5.63V72.65h5.57V75.31z"/>
		<path class="st0" d="M133.47,72.65h5.67l4.18,12.08h0.07l4.01-12.08h5.54l-6.55,17.38c-1.72,4.52-4.22,6.18-8.3,6.18
			c-0.68,0-1.59-0.03-2.33-0.17v-4.12c0.47,0.07,0.68,0.07,1.01,0.07c1.79,0,2.56-0.31,3.27-2.23L133.47,72.65z"/>
	</g>
	<rect x="132.85" y="21.85" class="st0" width="49.44" height="4.5"/>
</g>
</svg>
